0
SECTION
2
HEADER
9
$INSUNITS
70
4
9
$ACADVER
1
AC1014
9
$HANDSEED
5
FFFF
0
ENDSEC
0
SECTION
2
TABLES
0
TABLE
2
VPORT
5
8
100
AcDbSymbolTable
0
ENDTAB
0
TABLE
2
LTYPE
5
5
100
AcDbSymbolTable
0
LTYPE
5
14
100
AcDbSymbolTableRecord
100
AcDbLinetypeTableRecord
2
BYBLOCK
70
0
0
LTYPE
5
15
100
AcDbSymbolTableRecord
100
AcDbLinetypeTableRecord
2
BYLAYER
70
0
0
ENDTAB
0
TABLE
2
LAYER
5
2
100
AcDbSymbolTable
70
2
0
LAYER
5
50
100
AcDbSymbolTableRecord
100
AcDbLayerTableRecord
2
0
70
0
6
CONTINUOUS
0
ENDTAB
0
TABLE
2
STYLE
5
3
100
AcDbSymbolTable
70
1
0
STYLE
5
11
100
AcDbSymbolTableRecord
100
AcDbTextStyleTableRecord
2
STANDARD
70
0
0
ENDTAB
0
TABLE
2
VIEW
5
6
100
AcDbSymbolTable
70
0
0
ENDTAB
0
TABLE
2
UCS
5
7
100
AcDbSymbolTable
70
0
0
ENDTAB
0
TABLE
2
APPID
5
9
100
AcDbSymbolTable
70
2
0
APPID
5
12
100
AcDbSymbolTableRecord
100
AcDbRegAppTableRecord
2
ACAD
70
0
0
ENDTAB
0
TABLE
2
DIMSTYLE
5
A
100
AcDbSymbolTable
70
1
0
ENDTAB
0
TABLE
2
BLOCK_RECORD
5
1
100
AcDbSymbolTable
70
1
0
BLOCK_RECORD
5
1F
100
AcDbSymbolTableRecord
100
AcDbBlockTableRecord
2
*MODEL_SPACE
0
BLOCK_RECORD
5
1B
100
AcDbSymbolTableRecord
100
AcDbBlockTableRecord
2
*PAPER_SPACE
0
ENDTAB
0
ENDSEC
0
SECTION
2
BLOCKS
0
BLOCK
5
20
100
AcDbEntity
100
AcDbBlockBegin
2
*MODEL_SPACE
0
ENDBLK
5
21
100
AcDbEntity
100
AcDbBlockEnd
0
BLOCK
5
1C
100
AcDbEntity
100
AcDbBlockBegin
2
*PAPER_SPACE
0
ENDBLK
5
1D
100
AcDbEntity
100
AcDbBlockEnd
0
ENDSEC
0
SECTION
2
ENTITIES
0
CIRCLE
5
100
100
AcDbEntity
8
0
100
AcDbCircle
10
76.000001132488251
20
-8.0000001192092896
30
0
40
2.0000000000000018
0
CIRCLE
5
101
100
AcDbEntity
8
0
100
AcDbCircle
10
-0.14112460086819212
20
11.655533849569483
30
0
40
2
0
CIRCLE
5
102
100
AcDbEntity
8
0
100
AcDbCircle
10
-45.000000670552254
20
-68.000001013278961
30
0
40
2.0000000000000018
0
CIRCLE
5
103
100
AcDbEntity
8
0
100
AcDbCircle
10
-32.000000476837158
20
68.000001013278961
30
0
40
2.0000000000000018
0
CIRCLE
5
104
100
AcDbEntity
8
0
100
AcDbCircle
10
0
20
-83.999999836087227
30
0
40
1.9999999999999929
0
LWPOLYLINE
5
105
100
AcDbEntity
8
0
100
AcDbPolyline
90
4
70
1
43
0.0
10
-25.472400539010501
20
-95
10
-25.472400539010501
20
-72.999999672174454
10
-30.472400539010501
20
-72.999999672174454
10
-30.472400539010501
20
-95
0
LWPOLYLINE
5
106
100
AcDbEntity
8
0
100
AcDbPolyline
90
4
70
1
43
0.0
10
8.4724005390105006
20
-15
10
8.4724005390105006
20
-95
10
13.472400539010501
20
-95
10
13.472400539010501
20
-15
0
LWPOLYLINE
5
107
100
AcDbEntity
8
0
100
AcDbPolyline
90
4
70
1
43
0.0
10
15
20
-5
10
15
20
0
10
-15
20
0
10
-15
20
-5
0
LWPOLYLINE
5
108
100
AcDbEntity
8
0
100
AcDbPolyline
90
4
70
1
43
0.0
10
25.472400539010501
20
-95
10
30.472400539010501
20
-95
10
30.472400539010501
20
-45.000000000000007
10
25.472400539010501
20
-45.000000000000007
0
LWPOLYLINE
5
109
100
AcDbEntity
8
0
100
AcDbPolyline
90
18
70
1
43
0.0
10
-13.879999999999999
20
75.71999999999997
10
-13.879999999999999
20
80.719999999999956
10
-8.8800000000000061
20
80.719999999999956
10
-8.879999999999999
20
30
10
25.798475772933742
20
30
10
89.34557059347992
20
-6.6889323008610324
10
74.345570593479934
20
-32.669694414394165
10
30.420762113533169
20
-7.3096944143941833
10
20.420762113533172
20
-24.630202490082958
10
35.472400539010508
20
-33.32026998677722
10
35.472400539010501
20
-100
10
-35.472400539010501
20
-100
10
-65.465570593479924
20
-48.050305585605948
10
-21.540762113533138
20
-22.690305585605827
10
-38.88000000000001
20
7.3421353982779181
10
-38.879999999999974
20
80.719999999999999
10
-33.879999999999995
20
80.719999999999999
10
-33.879999999999995
20
75.71999999999997
0
LWPOLYLINE
5
110
100
AcDbEntity
8
0
100
AcDbPolyline
90
4
70
1
43
0.0
10
-48.76429115185104
20
-54.977770129912543
10
3.1972330752152618
20
-24.977770129912507
10
0.69723307521526223
20
-20.647643110990316
10
-51.264291151851047
20
-50.647643110990344
0
LWPOLYLINE
5
111
100
AcDbEntity
8
0
100
AcDbPolyline
90
4
70
1
43
0.0
10
-18.23
20
69.720000000000013
10
-23.23
20
69.720000000000013
10
-23.23
20
9.7200000000000042
10
-18.23
20
9.7200000000000042
0
LWPOLYLINE
5
112
100
AcDbEntity
8
0
100
AcDbPolyline
90
4
70
1
43
0.0
10
71.994291151851101
20
-14.742229870087479
10
20.032766924784742
20
15.257770129912506
10
17.532766924784742
20
10.927643110990317
10
69.494291151851058
20
-19.072356889009669
0
ENDSEC
0
SECTION
2
OBJECTS
0
DICTIONARY
5
C
100
AcDbDictionary
3
ACAD_GROUP
350
D
3
ACAD_MLINESTYLE
350
17
0
DICTIONARY
5
D
100
AcDbDictionary
0
DICTIONARY
5
1A
330
C
100
AcDbDictionary
0
DICTIONARY
5
17
100
AcDbDictionary
0
ENDSEC
0
EOF
