0
SECTION
2
HEADER
9
$INSUNITS
70
4
9
$ACADVER
1
AC1014
9
$HANDSEED
5
FFFF
0
ENDSEC
0
SECTION
2
TABLES
0
TABLE
2
VPORT
5
8
100
AcDbSymbolTable
0
ENDTAB
0
TABLE
2
LTYPE
5
5
100
AcDbSymbolTable
0
LTYPE
5
14
100
AcDbSymbolTableRecord
100
AcDbLinetypeTableRecord
2
BYBLOCK
70
0
0
LTYPE
5
15
100
AcDbSymbolTableRecord
100
AcDbLinetypeTableRecord
2
BYLAYER
70
0
0
ENDTAB
0
TABLE
2
LAYER
5
2
100
AcDbSymbolTable
70
2
0
LAYER
5
50
100
AcDbSymbolTableRecord
100
AcDbLayerTableRecord
2
0
70
0
6
CONTINUOUS
0
ENDTAB
0
TABLE
2
STYLE
5
3
100
AcDbSymbolTable
70
1
0
STYLE
5
11
100
AcDbSymbolTableRecord
100
AcDbTextStyleTableRecord
2
STANDARD
70
0
0
ENDTAB
0
TABLE
2
VIEW
5
6
100
AcDbSymbolTable
70
0
0
ENDTAB
0
TABLE
2
UCS
5
7
100
AcDbSymbolTable
70
0
0
ENDTAB
0
TABLE
2
APPID
5
9
100
AcDbSymbolTable
70
2
0
APPID
5
12
100
AcDbSymbolTableRecord
100
AcDbRegAppTableRecord
2
ACAD
70
0
0
ENDTAB
0
TABLE
2
DIMSTYLE
5
A
100
AcDbSymbolTable
70
1
0
ENDTAB
0
TABLE
2
BLOCK_RECORD
5
1
100
AcDbSymbolTable
70
1
0
BLOCK_RECORD
5
1F
100
AcDbSymbolTableRecord
100
AcDbBlockTableRecord
2
*MODEL_SPACE
0
BLOCK_RECORD
5
1B
100
AcDbSymbolTableRecord
100
AcDbBlockTableRecord
2
*PAPER_SPACE
0
ENDTAB
0
ENDSEC
0
SECTION
2
BLOCKS
0
BLOCK
5
20
100
AcDbEntity
100
AcDbBlockBegin
2
*MODEL_SPACE
0
ENDBLK
5
21
100
AcDbEntity
100
AcDbBlockEnd
0
BLOCK
5
1C
100
AcDbEntity
100
AcDbBlockBegin
2
*PAPER_SPACE
0
ENDBLK
5
1D
100
AcDbEntity
100
AcDbBlockEnd
0
ENDSEC
0
SECTION
2
ENTITIES
0
LWPOLYLINE
5
100
100
AcDbEntity
8
0
100
AcDbPolyline
90
4
70
1
43
0.0
10
-110
20
-90
10
110
20
-90
10
110
20
110
10
-110
20
110
0
LINE
5
101
100
AcDbEntity
8
0
100
AcDbLine
10
0
20
110
30
0
11
0
21
-90
31
0
0
LINE
5
102
100
AcDbEntity
8
0
100
AcDbLine
10
-110
20
0
30
0
11
110
21
0
31
0
0
LINE
5
103
100
AcDbEntity
8
0
100
AcDbLine
10
-100
20
110
30
0
11
-100
21
-90
31
0
0
LINE
5
104
100
AcDbEntity
8
0
100
AcDbLine
10
-90
20
110
30
0
11
-90
21
-90
31
0
0
LINE
5
105
100
AcDbEntity
8
0
100
AcDbLine
10
-80
20
110
30
0
11
-80
21
-90
31
0
0
LINE
5
106
100
AcDbEntity
8
0
100
AcDbLine
10
-70
20
110
30
0
11
-70
21
-90
31
0
0
LINE
5
107
100
AcDbEntity
8
0
100
AcDbLine
10
-60
20
110
30
0
11
-60
21
-90
31
0
0
LINE
5
108
100
AcDbEntity
8
0
100
AcDbLine
10
-50
20
110
30
0
11
-50
21
-90
31
0
0
LINE
5
109
100
AcDbEntity
8
0
100
AcDbLine
10
-40
20
110
30
0
11
-40
21
-90
31
0
0
LINE
5
110
100
AcDbEntity
8
0
100
AcDbLine
10
-30
20
110
30
0
11
-30
21
-90
31
0
0
LINE
5
111
100
AcDbEntity
8
0
100
AcDbLine
10
-20
20
110
30
0
11
-20
21
-90
31
0
0
LINE
5
112
100
AcDbEntity
8
0
100
AcDbLine
10
-10
20
110
30
0
11
-10
21
-90
31
0
0
LINE
5
113
100
AcDbEntity
8
0
100
AcDbLine
10
10
20
110
30
0
11
10
21
-90
31
0
0
LINE
5
114
100
AcDbEntity
8
0
100
AcDbLine
10
20
20
110
30
0
11
20
21
-90
31
0
0
LINE
5
115
100
AcDbEntity
8
0
100
AcDbLine
10
30
20
110
30
0
11
30
21
-90
31
0
0
LINE
5
116
100
AcDbEntity
8
0
100
AcDbLine
10
40
20
110
30
0
11
40
21
-90
31
0
0
LINE
5
117
100
AcDbEntity
8
0
100
AcDbLine
10
50
20
110
30
0
11
50
21
-90
31
0
0
LINE
5
118
100
AcDbEntity
8
0
100
AcDbLine
10
60
20
109.59999846518039
30
0
11
60
21
-90.400001534819609
31
0
0
LINE
5
119
100
AcDbEntity
8
0
100
AcDbLine
10
70
20
110
30
0
11
70
21
-90
31
0
0
LINE
5
120
100
AcDbEntity
8
0
100
AcDbLine
10
79.27515686307332
20
110
30
0
11
79.27515686307332
21
-90
31
0
0
LINE
5
121
100
AcDbEntity
8
0
100
AcDbLine
10
-110
20
-80
30
0
11
110
21
-80
31
0
0
LINE
5
122
100
AcDbEntity
8
0
100
AcDbLine
10
-110
20
-70
30
0
11
110
21
-70
31
0
0
LINE
5
123
100
AcDbEntity
8
0
100
AcDbLine
10
-110
20
-60
30
0
11
110
21
-60
31
0
0
LINE
5
124
100
AcDbEntity
8
0
100
AcDbLine
10
-110
20
-50
30
0
11
110
21
-50
31
0
0
LINE
5
125
100
AcDbEntity
8
0
100
AcDbLine
10
-110
20
-40
30
0
11
110
21
-40
31
0
0
LINE
5
126
100
AcDbEntity
8
0
100
AcDbLine
10
-110
20
-30
30
0
11
110
21
-30
31
0
0
LINE
5
127
100
AcDbEntity
8
0
100
AcDbLine
10
-110
20
-20
30
0
11
110
21
-20
31
0
0
LINE
5
128
100
AcDbEntity
8
0
100
AcDbLine
10
-110
20
-10
30
0
11
110
21
-10
31
0
0
LINE
5
129
100
AcDbEntity
8
0
100
AcDbLine
10
-110
20
10
30
0
11
110
21
10
31
0
0
LINE
5
130
100
AcDbEntity
8
0
100
AcDbLine
10
-110
20
20
30
0
11
110
21
20
31
0
0
LINE
5
131
100
AcDbEntity
8
0
100
AcDbLine
10
-110
20
30
30
0
11
110
21
30
31
0
0
LINE
5
132
100
AcDbEntity
8
0
100
AcDbLine
10
-110
20
40
30
0
11
110
21
40
31
0
0
LINE
5
133
100
AcDbEntity
8
0
100
AcDbLine
10
-110
20
50
30
0
11
110
21
50
31
0
0
LINE
5
134
100
AcDbEntity
8
0
100
AcDbLine
10
-110
20
60
30
0
11
110
21
60
31
0
0
LINE
5
135
100
AcDbEntity
8
0
100
AcDbLine
10
-110
20
70
30
0
11
110
21
70
31
0
0
LINE
5
136
100
AcDbEntity
8
0
100
AcDbLine
10
-110
20
80
30
0
11
110
21
80
31
0
0
LINE
5
137
100
AcDbEntity
8
0
100
AcDbLine
10
-110.72484313692668
20
100
30
0
11
79.27515686307332
21
100
31
0
0
CIRCLE
5
138
100
AcDbEntity
8
0
100
AcDbCircle
10
0
20
0
30
0
40
5
0
LINE
5
139
100
AcDbEntity
8
0
100
AcDbLine
10
100
20
80
30
0
11
100
21
-90
31
0
0
LINE
5
140
100
AcDbEntity
8
0
100
AcDbLine
10
90
20
80
30
0
11
90
21
-90
31
0
0
LINE
5
141
100
AcDbEntity
8
0
100
AcDbLine
10
-110.72484313692668
20
90
30
0
11
79.27515686307332
21
90
31
0
0
LINE
5
142
100
AcDbEntity
8
0
100
AcDbLine
10
105.00000156462193
20
105
30
0
11
84.27515686307332
21
105
31
0
0
LINE
5
143
100
AcDbEntity
8
0
100
AcDbLine
10
84.27515686307332
20
105
30
0
11
88.275156863073335
21
103
31
0
0
LINE
5
144
100
AcDbEntity
8
0
100
AcDbLine
10
105.00000156462193
20
105
30
0
11
105.00000156462193
21
83.599999716877932
31
0
0
LINE
5
145
100
AcDbEntity
8
0
100
AcDbLine
10
105.00000156462193
20
83.599999716877932
30
0
11
103.0000015348196
21
87.599999776482576
31
0
0
LWPOLYLINE
5
146
100
AcDbEntity
8
0
100
AcDbPolyline
90
4
70
1
43
0.0
10
95.508122692183292
20
90.294587370493801
10
102.07062269218329
20
90.294587370493801
10
102.07062269218329
20
80.294587370493801
10
95.508122692183292
20
80.294587370493801
0
LWPOLYLINE
5
147
100
AcDbEntity
8
0
100
AcDbPolyline
90
4
70
1
43
0.0
10
90.301716007203581
20
94.289558680000454
10
83.739216007203581
20
94.289558680000454
10
83.739216007203581
20
104.28955868000045
10
90.301716007203581
20
104.28955868000045
0
ENDSEC
0
SECTION
2
OBJECTS
0
DICTIONARY
5
C
100
AcDbDictionary
3
ACAD_GROUP
350
D
3
ACAD_MLINESTYLE
350
17
0
DICTIONARY
5
D
100
AcDbDictionary
0
DICTIONARY
5
1A
330
C
100
AcDbDictionary
0
DICTIONARY
5
17
100
AcDbDictionary
0
ENDSEC
0
EOF
